<svg height="64.001" viewBox="0 0 56 64.001" width="56" xmlns="http://www.w3.org/2000/svg"><path d="M52 0H4C1.79 0 0 1.79 0 4v52c0 2.21 1.79 4 4 4h34l18-18V4c0-2.21-1.79-4-4-4z" fill="#CCC"/><path d="M50 4H6c-1.105 0-2 .896-2 2v48c0 1.104.895 2 2 2h30l16-16V6c0-1.104-.896-2-2-2z" fill="#FFF"/><path d="M42 42c-2.21 0-4 1.79-4 4v14l18-18H42z" fill="#999"/><path d="M42 28H14c-1.105 0-2 .896-2 2s.895 2 2 2h28c1.104 0 2-.896 2-2s-.896-2-2-2zm-28-4h16c1.104 0 2-.896 2-2s-.896-2-2-2H14c-1.105 0-2 .896-2 2s.895 2 2 2zm0-8h28c1.104 0 2-.896 2-2s-.896-2-2-2H14c-1.105 0-2 .895-2 2s.895 2 2 2z" fill-rule="evenodd" clip-rule="evenodd" fill="#CCC"/><path fill="#ED7161" d="M16 50v14l4-4 4 4V50"/><circle cx="20" cy="44" r="8" fill="#FFD073"/></svg>