<svg width="256" height="108" viewBox="0 0 256 108" xmlns="http://www.w3.org/2000/svg" preserveAspectRatio="xMidYMid"><path d="M152.984 37.214c-5.597 0-9.765 2.748-9.765 9.362 0 4.983 2.746 8.443 9.462 8.443 5.693 0 9.56-3.356 9.56-8.65 0-6-3.46-9.156-9.258-9.156zm-11.19 46.7c-1.325 1.626-2.645 3.354-2.645 5.39 0 4.068 5.185 5.292 12.308 5.292 5.9 0 13.94-.414 13.94-5.9 0-3.26-3.868-3.462-8.754-3.768l-14.85-1.013zm30.113-46.393c1.828 2.34 3.764 5.598 3.764 10.277 0 11.292-8.85 17.904-21.666 17.904-3.26 0-6.21-.405-8.038-.913l-3.36 5.39 9.97.61c17.602 1.122 27.975 1.632 27.975 15.157 0 11.702-10.27 18.31-27.974 18.31-18.413 0-25.433-4.678-25.433-12.715 0-4.58 2.035-7.016 5.596-10.38-3.36-1.418-4.477-3.96-4.477-6.708 0-2.24 1.118-4.274 2.952-6.21 1.83-1.93 3.864-3.864 6.306-6.102-4.983-2.442-8.748-7.732-8.748-15.262 0-11.697 7.732-19.73 23.294-19.73 4.376 0 7.022.4 9.362 1.016h19.84v8.644l-9.36.713zM199.166 19.034c-5.8 0-9.157-3.36-9.157-9.16 0-5.794 3.355-8.95 9.156-8.95 5.9 0 9.258 3.156 9.258 8.95 0 5.8-3.357 9.16-9.258 9.16zM186.04 80.17V72.14l5.19-.71c1.425-.205 1.627-.51 1.627-2.038V39.48c0-1.116-.304-1.832-1.325-2.134l-5.492-1.935 1.118-8.237h21.06V69.39c0 1.63.1 1.833 1.63 2.04l5.188.708v8.033H186.04zM255.267 76.227c-4.376 2.135-10.785 4.068-16.586 4.068-12.105 0-16.68-4.878-16.68-16.38V37.264c0-.61 0-1.017-.818-1.017h-7.12V27.19c8.955-1.018 12.513-5.495 13.632-16.584h9.666v14.45c0 .71 0 1.017.815 1.017h14.343v10.173H237.36V60.56c0 6 1.426 8.34 6.917 8.34 2.852 0 5.8-.712 8.24-1.627l2.75 8.954" fill="#2F2707"/><path d="M104.53 49.53L58.012 3.017c-2.677-2.68-7.022-2.68-9.703 0l-9.66 9.66 12.254 12.252c2.848-.963 6.113-.318 8.383 1.952 2.28 2.284 2.92 5.577 1.936 8.434l11.808 11.81c2.858-.985 6.155-.348 8.436 1.937 3.19 3.188 3.19 8.355 0 11.545-3.19 3.19-8.356 3.19-11.548 0-2.398-2.4-2.99-5.925-1.776-8.88L57.13 40.716l-.002 28.98c.777.386 1.51.9 2.16 1.544 3.188 3.188 3.188 8.355 0 11.547-3.19 3.19-8.36 3.19-11.546 0-3.19-3.192-3.19-8.36 0-11.547.788-.786 1.7-1.38 2.672-1.78V40.207c-.972-.397-1.883-.99-2.672-1.78-2.416-2.414-2.997-5.96-1.76-8.926l-12.077-12.08L2.01 49.314c-2.68 2.682-2.68 7.027 0 9.706l46.517 46.514c2.678 2.68 7.02 2.68 9.703 0l46.3-46.297c2.678-2.68 2.678-7.028 0-9.707" fill="#DE4C36"/></svg>